<?xml version="1.0" encoding="iso-8859-1"?>
<!-- Generator: Adobe Illustrator 22.0.0, SVG Export Plug-In . SVG Version: 6.00 Build 0)  -->
<svg xmlns="http://www.w3.org/2000/svg" xmlns:xlink="http://www.w3.org/1999/xlink" version="1.1" x="0px" y="0px" viewBox="0 0 49 60" style="enable-background:new 0 0 49 60;" xml:space="preserve" width="512" height="512">
<g id="_x32_2-Dental_Drill">
	<path style="fill:#556080;" d="M24,7.996c-2.726,0-5.934,7.352-5.994,12.774c0.531-0.476,1.225-0.774,1.994-0.774   c0.774,0,1.473,0.301,2.005,0.783C22.064,15.353,27.273,7.996,30,7.996H24z"/>
	<path style="fill:#7383BF;" d="M20,52.996L20,52.996c-1.657,0-3-1.343-3-3v-28c0-1.657,1.343-3,3-3h0c1.657,0,3,1.343,3,3v28   C23,51.653,21.657,52.996,20,52.996z"/>
	<rect x="17" y="25.996" style="fill:#556080;" width="6" height="4"/>
	<rect x="17" y="41.996" style="fill:#556080;" width="6" height="4"/>
	<path style="fill:#7383BF;" d="M31,8.996H17v-8h14c1.104,0,2,0.895,2,2v4.001C33,8.101,32.105,8.996,31,8.996z"/>
	<path style="fill:#556080;" d="M36,6.996h-3v-4h3c1.105,0,2,0.895,2,2v0C38,6.101,37.105,6.996,36,6.996z"/>
	<path style="fill:#556080;" d="M17,8.996h-2c-2.209,0-4-1.791-4-4v0c0-2.209,1.791-4,4-4h2V8.996z"/>
	<path style="fill:#4D007E;" d="M20,54c-2.206,0-4-1.794-4-4V22c0-2.206,1.794-4,4-4s4,1.794,4,4v28C24,52.206,22.206,54,20,54z    M20,20c-1.103,0-2,0.897-2,2v28c0,1.103,0.897,2,2,2s2-0.897,2-2V22C22,20.897,21.103,20,20,20z"/>
	<path style="fill:#4D007E;" d="M23,31h-6c-0.552,0-1-0.448-1-1v-4c0-0.552,0.448-1,1-1h6c0.552,0,1,0.448,1,1v4   C24,30.552,23.552,31,23,31z M18,29h4v-2h-4V29z"/>
	<path style="fill:#4D007E;" d="M23,47h-6c-0.552,0-1-0.448-1-1v-4c0-0.552,0.448-1,1-1h6c0.552,0,1,0.448,1,1v4   C24,46.552,23.552,47,23,47z M18,45h4v-2h-4V45z"/>
	<path style="fill:#4D007E;" d="M31,10H17c-0.552,0-1-0.448-1-1V1c0-0.552,0.448-1,1-1h14c1.654,0,3,1.346,3,3V7   C34,8.654,32.655,10,31,10z M18,8h13c0.551,0,1-0.448,1-1V3c0-0.551-0.448-1-1-1H18V8z"/>
	<path style="fill:#4D007E;" d="M36,8h-3c-0.552,0-1-0.448-1-1V3c0-0.552,0.448-1,1-1h3c1.654,0,3,1.346,3,3S37.654,8,36,8z M34,6h2   c0.552,0,1-0.449,1-1s-0.448-1-1-1h-2V6z"/>
	<path style="fill:#4D007E;" d="M17,10h-2c-2.757,0-5-2.243-5-5s2.243-5,5-5h2c0.552,0,1,0.448,1,1v8C18,9.552,17.552,10,17,10z    M15,2c-1.654,0-3,1.346-3,3s1.346,3,3,3h1V2H15z"/>
	<path style="fill:#4D007E;" d="M11,6H1C0.448,6,0,5.552,0,5s0.448-1,1-1h10c0.552,0,1,0.448,1,1S11.552,6,11,6z"/>
	<path style="fill:#4D007E;" d="M4,8C3.448,8,3,7.552,3,7V3c0-0.552,0.448-1,1-1s1,0.448,1,1v4C5,7.552,4.552,8,4,8z"/>
	<path style="fill:#4D007E;" d="M26,60c-3.86,0-7-3.14-7-7c0-0.552,0.448-1,1-1s1,0.448,1,1c0,2.757,2.243,5,5,5s5-2.243,5-5   c0-3.86,3.14-7,7-7h10c0.552,0,1,0.448,1,1s-0.448,1-1,1H38c-2.757,0-5,2.243-5,5C33,56.86,29.86,60,26,60z"/>
	<path style="fill:#4D007E;" d="M22.006,20.783c-0.244,0-0.484-0.089-0.671-0.259C20.961,20.186,20.487,20,20,20   c-0.619,0-1.063,0.282-1.327,0.519c-0.295,0.265-0.719,0.33-1.08,0.166s-0.592-0.525-0.587-0.922C17.071,13.937,20.601,8,24,8h6   c0.552,0,1,0.448,1,1s-0.448,1-1,1c-2.166,0-6.942,4.917-6.995,9.794c-0.004,0.394-0.239,0.748-0.599,0.906   C22.277,20.756,22.141,20.783,22.006,20.783z M20,18c0.393,0,0.781,0.059,1.153,0.173c0.554-3.235,2.586-6.274,4.761-8.173H24   c-1.638,0-4.272,3.625-4.871,8.098C19.413,18.033,19.705,18,20,18z"/>
</g>

</svg>
