<?xml version="1.0" encoding="iso-8859-1"?>
<!-- Generator: Adobe Illustrator 22.0.0, SVG Export Plug-In . SVG Version: 6.00 Build 0)  -->
<svg xmlns="http://www.w3.org/2000/svg" xmlns:xlink="http://www.w3.org/1999/xlink" version="1.1" x="0px" y="0px" viewBox="0 0 60 60" style="enable-background:new 0 0 60 60;" xml:space="preserve" width="512" height="512">
<g id="_x32_1-Toothpaste">
	<path style="fill:#F2ECBF;" d="M12,6.996H6v-4h4.598C11.372,2.996,12,3.624,12,4.398V6.996z"/>
	<rect x="5" y="6.996" style="fill:#CEC274;" width="7" height="4"/>
	<rect x="5" y="10.996" style="fill:#F2ECBF;" width="7" height="4"/>
	<rect x="5" y="14.996" style="fill:#CEC274;" width="7" height="4"/>
	<rect x="37" y="9.996" style="fill:#AFB6BB;" width="8" height="6"/>
	<path style="fill:#E7ECED;" d="M47,19.996H35v-4.114c0-0.49,0.397-0.886,0.886-0.886h10.227c0.49,0,0.886,0.397,0.886,0.886V19.996   z"/>
	<path style="fill:#B02721;" d="M4,30.218c0.772,0,1.468,0.3,2,0.779v-28h0c-2.209,0-4,1.791-4,4v24   C2.532,30.517,3.228,30.218,4,30.218z"/>
	<rect x="25" y="25.996" style="fill:#25AE88;" width="32" height="26"/>
	<path style="fill:#DD352E;" d="M4,58.996L4,58.996c-1.657,0-3-1.343-3-3v-24c0-1.657,1.343-3,3-3h0c1.657,0,3,1.343,3,3v24   C7,57.653,5.657,58.996,4,58.996z"/>
	<rect x="1" y="35.996" style="fill:#EBBA16;" width="6" height="4"/>
	<rect x="1" y="47.996" style="fill:#EBBA16;" width="6" height="4"/>
	<path style="fill:#F7B563;" d="M18,4.996v14c0,1.657-1.343,3-3,3h0c-1.657,0-3-1.343-3-3v-14c0-2.209,1.791-4,4-4h3.692   c0.342,0,0.451,0.439,0.163,0.622C18.739,2.328,18,3.575,18,4.996z"/>
	<path style="fill:#009164;" d="M57.803,26.996H24.197c-0.661,0-1.197-0.536-1.197-1.197v-5.607c0-0.661,0.536-1.197,1.197-1.197   h33.607c0.661,0,1.197,0.536,1.197,1.197v5.607C59,26.46,58.464,26.996,57.803,26.996z"/>
	<path style="fill:#009164;" d="M24.197,50.996h33.607c0.661,0,1.197,0.536,1.197,1.197v5.607c0,0.661-0.536,1.197-1.197,1.197   H24.197c-0.661,0-1.197-0.536-1.197-1.197v-5.607C23,51.532,23.536,50.996,24.197,50.996z"/>
	<path style="fill:#ED8A19;" d="M46.114,10.996H35.886c-0.49,0-0.886-0.397-0.886-0.886V1.882c0-0.49,0.397-0.886,0.886-0.886   h10.227c0.49,0,0.886,0.397,0.886,0.886v8.227C47,10.599,46.603,10.996,46.114,10.996z"/>
	<rect x="31" y="30.996" style="fill:#F2ECBF;" width="20" height="16"/>
	<path style="fill:#4D007E;" d="M4,60c-2.206,0-4-1.794-4-4V32c0-2.206,1.794-4,4-4s4,1.794,4,4v24C8,58.206,6.206,60,4,60z M4,30   c-1.103,0-2,0.897-2,2v24c0,1.103,0.897,2,2,2s2-0.897,2-2V32C6,30.897,5.103,30,4,30z"/>
	<path style="fill:#4D007E;" d="M6,30.779c-0.243,0-0.482-0.088-0.669-0.257C5.066,30.284,4.621,30,4,30s-1.066,0.284-1.331,0.522   c-0.293,0.264-0.715,0.331-1.076,0.17C1.232,30.532,1,30.174,1,29.779V7c0-2.757,2.243-5,5-5c0.552,0,1,0.448,1,1v26.779   c0,0.395-0.232,0.753-0.593,0.914C6.276,30.75,6.138,30.779,6,30.779z M4,28c0.34,0,0.675,0.044,1,0.13V4.171   C3.836,4.584,3,5.696,3,7v21.13C3.325,28.044,3.66,28,4,28z"/>
	<path style="fill:#4D007E;" d="M7,41H1c-0.552,0-1-0.448-1-1v-4c0-0.552,0.448-1,1-1h6c0.552,0,1,0.448,1,1v4   C8,40.552,7.552,41,7,41z M2,39h4v-2H2V39z"/>
	<path style="fill:#4D007E;" d="M7,53H1c-0.552,0-1-0.448-1-1v-4c0-0.552,0.448-1,1-1h6c0.552,0,1,0.448,1,1v4   C8,52.552,7.552,53,7,53z M2,51h4v-2H2V51z"/>
	<path style="fill:#4D007E;" d="M12,8H6C5.448,8,5,7.552,5,7V3c0-0.552,0.448-1,1-1h6c0.552,0,1,0.448,1,1v4C13,7.552,12.552,8,12,8   z M7,6h4V4H7V6z"/>
	<path style="fill:#4D007E;" d="M12,12H6c-0.552,0-1-0.448-1-1V7c0-0.552,0.448-1,1-1h6c0.552,0,1,0.448,1,1v4   C13,11.552,12.552,12,12,12z M7,10h4V8H7V10z"/>
	<path style="fill:#4D007E;" d="M12,16H6c-0.552,0-1-0.448-1-1v-4c0-0.552,0.448-1,1-1h6c0.552,0,1,0.448,1,1v4   C13,15.552,12.552,16,12,16z M7,14h4v-2H7V14z"/>
	<path style="fill:#4D007E;" d="M12,20H6c-0.552,0-1-0.448-1-1v-4c0-0.552,0.448-1,1-1h6c0.552,0,1,0.448,1,1v4   C13,19.552,12.552,20,12,20z M7,18h4v-2H7V18z"/>
	<path style="fill:#4D007E;" d="M15,23c-2.206,0-4-1.794-4-4V5c0-2.757,2.243-5,5-5h6c0.552,0,1,0.448,1,1s-0.448,1-1,1   c-1.654,0-3,1.346-3,3v14C19,21.206,17.206,23,15,23z M16,2c-1.654,0-3,1.346-3,3v14c0,1.103,0.897,2,2,2s2-0.897,2-2V5   c0-1.125,0.373-2.164,1.002-3H16z"/>
	<path style="fill:#4D007E;" d="M57.803,28H24.197C22.985,28,22,27.015,22,25.803v-5.606C22,18.985,22.985,18,24.197,18h33.606   C59.015,18,60,18.985,60,20.197v5.606C60,27.015,59.015,28,57.803,28z M24.197,20C24.088,20,24,20.088,24,20.197v5.606   C24,25.912,24.088,26,24.197,26h33.606C57.912,26,58,25.912,58,25.803v-5.606C58,20.088,57.912,20,57.803,20H24.197z"/>
	<path style="fill:#4D007E;" d="M57,52H25c-0.552,0-1-0.448-1-1V27c0-0.552,0.448-1,1-1h32c0.552,0,1,0.448,1,1v24   C58,51.552,57.552,52,57,52z M26,50h30V28H26V50z"/>
	<path style="fill:#4D007E;" d="M57.803,60H24.197C22.985,60,22,59.015,22,57.803v-5.606C22,50.985,22.985,50,24.197,50h33.606   C59.015,50,60,50.985,60,52.197v5.606C60,59.015,59.015,60,57.803,60z M24.197,52C24.088,52,24,52.088,24,52.197v5.606   C24,57.912,24.088,58,24.197,58h33.606C57.912,58,58,57.912,58,57.803v-5.606C58,52.088,57.912,52,57.803,52H24.197z"/>
	<path style="fill:#4D007E;" d="M47,20H35c-0.552,0-1-0.448-1-1v-4c0-0.552,0.448-1,1-1h12c0.552,0,1,0.448,1,1v4   C48,19.552,47.552,20,47,20z M36,18h10v-2H36V18z"/>
	<path style="fill:#4D007E;" d="M45,16h-8c-0.552,0-1-0.448-1-1v-4c0-0.552,0.448-1,1-1h8c0.552,0,1,0.448,1,1v4   C46,15.552,45.552,16,45,16z M38,14h6v-2h-6V14z"/>
	<path style="fill:#4D007E;" d="M47,12H35c-0.552,0-1-0.448-1-1V1c0-0.552,0.448-1,1-1h12c0.552,0,1,0.448,1,1v10   C48,11.552,47.552,12,47,12z M36,10h10V2H36V10z"/>
	<path style="fill:#4D007E;" d="M51,56H23c-0.552,0-1-0.448-1-1s0.448-1,1-1h28c0.552,0,1,0.448,1,1S51.552,56,51,56z"/>
	<path style="fill:#4D007E;" d="M59,56h-4c-0.552,0-1-0.448-1-1s0.448-1,1-1h4c0.552,0,1,0.448,1,1S59.552,56,59,56z"/>
	<path style="fill:#4D007E;" d="M59,24H31c-0.552,0-1-0.448-1-1s0.448-1,1-1h28c0.552,0,1,0.448,1,1S59.552,24,59,24z"/>
	<path style="fill:#4D007E;" d="M27,24h-4c-0.552,0-1-0.448-1-1s0.448-1,1-1h4c0.552,0,1,0.448,1,1S27.552,24,27,24z"/>
	<path style="fill:#4D007E;" d="M51,48H31c-0.552,0-1-0.448-1-1V31c0-0.552,0.448-1,1-1h20c0.552,0,1,0.448,1,1v16   C52,47.552,51.552,48,51,48z M32,46h18V32H32V46z"/>
	<path style="fill:#4D007E;" d="M41,36h-6c-0.552,0-1-0.448-1-1s0.448-1,1-1h6c0.552,0,1,0.448,1,1S41.552,36,41,36z"/>
	<path style="fill:#4D007E;" d="M47,36h-2c-0.552,0-1-0.448-1-1s0.448-1,1-1h2c0.552,0,1,0.448,1,1S47.552,36,47,36z"/>
	<path style="fill:#4D007E;" d="M41,44h-6c-0.552,0-1-0.448-1-1s0.448-1,1-1h6c0.552,0,1,0.448,1,1S41.552,44,41,44z"/>
	<path style="fill:#4D007E;" d="M47,44h-2c-0.552,0-1-0.448-1-1s0.448-1,1-1h2c0.552,0,1,0.448,1,1S47.552,44,47,44z"/>
	<path style="fill:#4D007E;" d="M47,40h-6c-0.552,0-1-0.448-1-1s0.448-1,1-1h6c0.552,0,1,0.448,1,1S47.552,40,47,40z"/>
	<path style="fill:#4D007E;" d="M37,40h-2c-0.552,0-1-0.448-1-1s0.448-1,1-1h2c0.552,0,1,0.448,1,1S37.552,40,37,40z"/>
	<path style="fill:#4D007E;" d="M39,5c-0.552,0-1-0.448-1-1V1c0-0.552,0.448-1,1-1s1,0.448,1,1v3C40,4.552,39.552,5,39,5z"/>
	<path style="fill:#4D007E;" d="M43,5c-0.552,0-1-0.448-1-1V1c0-0.552,0.448-1,1-1s1,0.448,1,1v3C44,4.552,43.552,5,43,5z"/>
</g>

</svg>
